<svg width="26" height="26" viewBox="0 0 26 26" fill="none" xmlns="http://www.w3.org/2000/svg">
<g clip-path="url(#clip0_16_774)">
<path d="M7.31836 24.8533C5.93711 24.2701 4.69514 23.4314 3.63019 22.3665C2.57019 21.3098 1.7256 20.0572 1.14336 18.6783C0.539249 17.2508 0.229347 15.7161 0.232197 14.166V14.1718C0.230643 15.6945 0.529754 17.2024 1.11237 18.6091C1.69498 20.0159 2.54963 21.2937 3.62729 22.3694C4.69224 23.4344 5.9313 24.2701 7.31255 24.8533C8.74063 25.4592 10.2765 25.7701 11.8277 25.7674C12.6112 25.7674 13.3831 25.689 14.1405 25.5381C13.3889 25.689 12.6199 25.7645 11.8393 25.7645C10.2724 25.7674 8.75184 25.4598 7.31836 24.8533ZM14.3929 11.8388C14.2652 11.8388 14.1608 11.7343 14.1608 11.6067V0.46091C14.1608 0.423186 14.1695 0.388365 14.1869 0.356445C14.1608 0.394169 14.1434 0.440597 14.1434 0.489927V11.6241C14.1434 11.7518 14.2478 11.8562 14.3755 11.8562L25.5067 11.8272C25.5532 11.8272 25.5967 11.8127 25.6344 11.7895C25.6054 11.804 25.5706 11.8098 25.5358 11.8098L14.3929 11.8388Z" fill="#22DACB"/>
<path d="M15.4757 4.72604L14.6251 4.54802V5.41699V10.6733V11.3811L15.333 11.3792L20.5852 11.3649L21.4506 11.3625L21.2744 10.5152C20.98 9.0997 20.2717 7.78796 19.2383 6.75678L19.2378 6.75634C18.2069 5.72947 16.8999 5.02414 15.4757 4.72604Z" fill="#22DACB" stroke="#22DACB" stroke-width="1.41185"/>
<path d="M12.227 6.92676V6.14662L11.4508 6.22435C9.73296 6.39635 8.14166 7.15086 6.90867 8.38386C5.49171 9.80081 4.71082 11.6888 4.71082 13.6928C4.71082 15.6967 5.49171 17.5847 6.90867 19.0017C8.31651 20.4095 10.1909 21.1905 12.1816 21.1995C14.1751 21.2085 16.086 20.4286 17.5017 19.0244C18.7505 17.7869 19.5117 16.1865 19.6859 14.4601L19.7643 13.6833H18.9836H12.227V6.92676Z" fill="#22DACB" stroke="#22DACB" stroke-width="1.41185"/>
</g>
<defs>
<clipPath id="clip0_16_774">
<rect width="26" height="26" fill="white"/>
</clipPath>
</defs>
</svg>
